<mxfile host="app.diagrams.net" modified="2023-07-18T10:29:44.081Z" agent="Mozilla/5.0 (Macintosh; Intel Mac OS X 10_15_7) AppleWebKit/537.36 (KHTML, like Gecko) Chrome/114.0.0.0 Safari/537.36" etag="HDNYZvhMbzhTNoMhvx54" version="21.6.2" type="github">
  <diagram id="Mzif3MlfNewGBexyQ6pW" name="新机审流程">
    <mxGraphModel dx="2601" dy="1522" grid="0" gridSize="10" guides="1" tooltips="1" connect="1" arrows="1" fold="1" page="1" pageScale="1" pageWidth="1169" pageHeight="827" math="0" shadow="0">
      <root>
        <mxCell id="0" />
        <mxCell id="1" parent="0" />
        <mxCell id="kGWkDboD7di_XbReE8EX-249" value="" style="rounded=0;whiteSpace=wrap;html=1;fontSize=11;fillColor=#b0e3e6;strokeColor=#0e8088;" parent="1" vertex="1">
          <mxGeometry x="-209" y="75.06" width="404" height="482" as="geometry" />
        </mxCell>
        <mxCell id="kGWkDboD7di_XbReE8EX-247" value="" style="rounded=0;whiteSpace=wrap;html=1;fontSize=11;fillColor=#fff2cc;strokeColor=#d6b656;" parent="1" vertex="1">
          <mxGeometry x="-569" y="75.06" width="360" height="481.94" as="geometry" />
        </mxCell>
        <mxCell id="kGWkDboD7di_XbReE8EX-1" value="视频云" style="text;html=1;align=center;verticalAlign=middle;resizable=0;points=[];autosize=1;strokeColor=none;fillColor=none;fontStyle=1;fontSize=20;" parent="1" vertex="1">
          <mxGeometry x="-417" y="35" width="70" height="28" as="geometry" />
        </mxCell>
        <mxCell id="kGWkDboD7di_XbReE8EX-31" style="edgeStyle=orthogonalEdgeStyle;rounded=0;orthogonalLoop=1;jettySize=auto;html=1;exitX=1;exitY=0.5;exitDx=0;exitDy=0;entryX=0;entryY=0.5;entryDx=0;entryDy=0;fontSize=11;" parent="1" source="kGWkDboD7di_XbReE8EX-3" target="kGWkDboD7di_XbReE8EX-30" edge="1">
          <mxGeometry relative="1" as="geometry" />
        </mxCell>
        <mxCell id="kGWkDboD7di_XbReE8EX-3" value="&lt;span style=&quot;font-size: 11px;&quot;&gt;mq proxy&lt;/span&gt;" style="rounded=1;whiteSpace=wrap;html=1;fontSize=11;fillColor=#dae8fc;strokeColor=#6c8ebf;" parent="1" vertex="1">
          <mxGeometry x="391" y="-165" width="76" height="30" as="geometry" />
        </mxCell>
        <mxCell id="kGWkDboD7di_XbReE8EX-4" value="Raw Url" style="rounded=0;whiteSpace=wrap;html=1;fontSize=11;" parent="1" vertex="1">
          <mxGeometry x="-436" y="155" width="76" height="30" as="geometry" />
        </mxCell>
        <mxCell id="kGWkDboD7di_XbReE8EX-12" style="edgeStyle=orthogonalEdgeStyle;rounded=0;orthogonalLoop=1;jettySize=auto;html=1;exitX=1;exitY=0.5;exitDx=0;exitDy=0;entryX=0;entryY=0.5;entryDx=0;entryDy=0;fontSize=11;strokeWidth=2;" parent="1" source="kGWkDboD7di_XbReE8EX-7" target="kGWkDboD7di_XbReE8EX-11" edge="1">
          <mxGeometry relative="1" as="geometry" />
        </mxCell>
        <mxCell id="vf4R6eB1hgoiosgvf34Q-3" style="edgeStyle=orthogonalEdgeStyle;rounded=0;orthogonalLoop=1;jettySize=auto;html=1;exitX=0.5;exitY=0;exitDx=0;exitDy=0;entryX=0.5;entryY=1;entryDx=0;entryDy=0;" edge="1" parent="1" source="kGWkDboD7di_XbReE8EX-7" target="kGWkDboD7di_XbReE8EX-4">
          <mxGeometry relative="1" as="geometry" />
        </mxCell>
        <mxCell id="kGWkDboD7di_XbReE8EX-7" value="Raw Video" style="rounded=0;whiteSpace=wrap;html=1;fontSize=11;" parent="1" vertex="1">
          <mxGeometry x="-436" y="223" width="76" height="30" as="geometry" />
        </mxCell>
        <mxCell id="kGWkDboD7di_XbReE8EX-9" value="1s1f&amp;nbsp; Url" style="rounded=0;whiteSpace=wrap;html=1;fontSize=11;" parent="1" vertex="1">
          <mxGeometry x="-310" y="155" width="76" height="30" as="geometry" />
        </mxCell>
        <mxCell id="kGWkDboD7di_XbReE8EX-23" style="edgeStyle=orthogonalEdgeStyle;rounded=0;orthogonalLoop=1;jettySize=auto;html=1;exitX=1;exitY=0.5;exitDx=0;exitDy=0;entryX=0;entryY=0.5;entryDx=0;entryDy=0;fontSize=11;strokeWidth=2;" parent="1" source="kGWkDboD7di_XbReE8EX-11" target="kGWkDboD7di_XbReE8EX-21" edge="1">
          <mxGeometry relative="1" as="geometry" />
        </mxCell>
        <mxCell id="kGWkDboD7di_XbReE8EX-24" value="通知一转成功" style="edgeLabel;html=1;align=center;verticalAlign=middle;resizable=0;points=[];fontSize=11;" parent="kGWkDboD7di_XbReE8EX-23" vertex="1" connectable="0">
          <mxGeometry x="-0.3324" relative="1" as="geometry">
            <mxPoint as="offset" />
          </mxGeometry>
        </mxCell>
        <mxCell id="vf4R6eB1hgoiosgvf34Q-4" style="edgeStyle=orthogonalEdgeStyle;rounded=0;orthogonalLoop=1;jettySize=auto;html=1;exitX=0.5;exitY=0;exitDx=0;exitDy=0;entryX=0.5;entryY=1;entryDx=0;entryDy=0;" edge="1" parent="1" source="kGWkDboD7di_XbReE8EX-11" target="kGWkDboD7di_XbReE8EX-9">
          <mxGeometry relative="1" as="geometry" />
        </mxCell>
        <mxCell id="kGWkDboD7di_XbReE8EX-11" value="转码服务" style="rounded=1;whiteSpace=wrap;html=1;fontSize=11;fillColor=#dae8fc;strokeColor=#6c8ebf;" parent="1" vertex="1">
          <mxGeometry x="-306" y="223" width="76" height="30" as="geometry" />
        </mxCell>
        <mxCell id="kGWkDboD7di_XbReE8EX-14" value="审核平台" style="text;html=1;align=center;verticalAlign=middle;resizable=0;points=[];autosize=1;strokeColor=none;fillColor=none;fontStyle=1;fontSize=20;" parent="1" vertex="1">
          <mxGeometry x="-62" y="38" width="90" height="28" as="geometry" />
        </mxCell>
        <mxCell id="kGWkDboD7di_XbReE8EX-17" style="edgeStyle=orthogonalEdgeStyle;rounded=0;orthogonalLoop=1;jettySize=auto;html=1;exitX=1;exitY=0.5;exitDx=0;exitDy=0;entryX=0;entryY=0.5;entryDx=0;entryDy=0;fontSize=11;strokeWidth=2;" parent="1" source="kGWkDboD7di_XbReE8EX-16" target="kGWkDboD7di_XbReE8EX-7" edge="1">
          <mxGeometry relative="1" as="geometry" />
        </mxCell>
        <mxCell id="kGWkDboD7di_XbReE8EX-16" value="用户上传" style="rounded=1;whiteSpace=wrap;html=1;fontSize=11;" parent="1" vertex="1">
          <mxGeometry x="-562" y="223" width="76" height="30" as="geometry" />
        </mxCell>
        <mxCell id="kGWkDboD7di_XbReE8EX-22" style="edgeStyle=orthogonalEdgeStyle;rounded=0;orthogonalLoop=1;jettySize=auto;html=1;exitX=1;exitY=0.5;exitDx=0;exitDy=0;fontSize=11;strokeWidth=3;" parent="1" source="kGWkDboD7di_XbReE8EX-18" target="kGWkDboD7di_XbReE8EX-21" edge="1">
          <mxGeometry relative="1" as="geometry" />
        </mxCell>
        <mxCell id="kGWkDboD7di_XbReE8EX-18" value="用户提交" style="rounded=1;whiteSpace=wrap;html=1;fontSize=11;" parent="1" vertex="1">
          <mxGeometry x="-127" y="140" width="76" height="30" as="geometry" />
        </mxCell>
        <mxCell id="vf4R6eB1hgoiosgvf34Q-8" style="edgeStyle=orthogonalEdgeStyle;rounded=0;orthogonalLoop=1;jettySize=auto;html=1;exitX=1;exitY=0.5;exitDx=0;exitDy=0;" edge="1" parent="1" source="kGWkDboD7di_XbReE8EX-21" target="vf4R6eB1hgoiosgvf34Q-7">
          <mxGeometry relative="1" as="geometry" />
        </mxCell>
        <mxCell id="kGWkDboD7di_XbReE8EX-21" value="审核平台" style="rounded=1;whiteSpace=wrap;html=1;fontSize=11;fillColor=#dae8fc;strokeColor=#6c8ebf;" parent="1" vertex="1">
          <mxGeometry x="-12" y="201" width="164" height="76" as="geometry" />
        </mxCell>
        <mxCell id="kGWkDboD7di_XbReE8EX-38" style="edgeStyle=orthogonalEdgeStyle;rounded=0;orthogonalLoop=1;jettySize=auto;html=1;exitX=0.5;exitY=1;exitDx=0;exitDy=0;fontSize=11;" parent="1" source="kGWkDboD7di_XbReE8EX-30" target="kGWkDboD7di_XbReE8EX-32" edge="1">
          <mxGeometry relative="1" as="geometry" />
        </mxCell>
        <mxCell id="kGWkDboD7di_XbReE8EX-39" style="edgeStyle=orthogonalEdgeStyle;rounded=0;orthogonalLoop=1;jettySize=auto;html=1;exitX=0.5;exitY=1;exitDx=0;exitDy=0;entryX=0.5;entryY=0;entryDx=0;entryDy=0;fontSize=11;" parent="1" source="kGWkDboD7di_XbReE8EX-30" target="kGWkDboD7di_XbReE8EX-33" edge="1">
          <mxGeometry relative="1" as="geometry" />
        </mxCell>
        <mxCell id="kGWkDboD7di_XbReE8EX-40" style="edgeStyle=orthogonalEdgeStyle;rounded=0;orthogonalLoop=1;jettySize=auto;html=1;exitX=0.5;exitY=1;exitDx=0;exitDy=0;entryX=0.5;entryY=0;entryDx=0;entryDy=0;fontSize=11;" parent="1" source="kGWkDboD7di_XbReE8EX-30" target="kGWkDboD7di_XbReE8EX-34" edge="1">
          <mxGeometry relative="1" as="geometry" />
        </mxCell>
        <mxCell id="kGWkDboD7di_XbReE8EX-41" style="edgeStyle=orthogonalEdgeStyle;rounded=0;orthogonalLoop=1;jettySize=auto;html=1;exitX=0.5;exitY=1;exitDx=0;exitDy=0;entryX=0.5;entryY=0;entryDx=0;entryDy=0;fontSize=11;" parent="1" source="kGWkDboD7di_XbReE8EX-30" target="kGWkDboD7di_XbReE8EX-37" edge="1">
          <mxGeometry relative="1" as="geometry" />
        </mxCell>
        <mxCell id="kGWkDboD7di_XbReE8EX-30" value="&lt;span style=&quot;font-size: 11px;&quot;&gt;AudioExtract&lt;/span&gt;" style="rounded=1;whiteSpace=wrap;html=1;fontSize=11;fillColor=#dae8fc;strokeColor=#6c8ebf;" parent="1" vertex="1">
          <mxGeometry x="523" y="-165" width="76" height="30" as="geometry" />
        </mxCell>
        <mxCell id="kGWkDboD7di_XbReE8EX-43" style="rounded=0;orthogonalLoop=1;jettySize=auto;html=1;exitX=0.5;exitY=1;exitDx=0;exitDy=0;fontSize=11;entryX=0.5;entryY=0;entryDx=0;entryDy=0;" parent="1" source="kGWkDboD7di_XbReE8EX-32" target="kGWkDboD7di_XbReE8EX-42" edge="1">
          <mxGeometry relative="1" as="geometry" />
        </mxCell>
        <mxCell id="kGWkDboD7di_XbReE8EX-44" value="Databus" style="edgeLabel;html=1;align=center;verticalAlign=middle;resizable=0;points=[];fontSize=11;" parent="kGWkDboD7di_XbReE8EX-43" vertex="1" connectable="0">
          <mxGeometry x="-0.0189" y="-5" relative="1" as="geometry">
            <mxPoint as="offset" />
          </mxGeometry>
        </mxCell>
        <mxCell id="kGWkDboD7di_XbReE8EX-56" style="edgeStyle=none;rounded=0;orthogonalLoop=1;jettySize=auto;html=1;exitX=0.5;exitY=1;exitDx=0;exitDy=0;entryX=0.5;entryY=0;entryDx=0;entryDy=0;fontSize=11;" parent="1" source="kGWkDboD7di_XbReE8EX-32" target="kGWkDboD7di_XbReE8EX-55" edge="1">
          <mxGeometry relative="1" as="geometry" />
        </mxCell>
        <mxCell id="kGWkDboD7di_XbReE8EX-32" value="&lt;span style=&quot;font-size: 11px;&quot;&gt;ASR&lt;/span&gt;" style="rounded=1;whiteSpace=wrap;html=1;fontSize=11;fillColor=#dae8fc;strokeColor=#6c8ebf;" parent="1" vertex="1">
          <mxGeometry x="809" y="-95" width="45" height="30" as="geometry" />
        </mxCell>
        <mxCell id="kGWkDboD7di_XbReE8EX-50" style="edgeStyle=orthogonalEdgeStyle;rounded=0;orthogonalLoop=1;jettySize=auto;html=1;exitX=0.5;exitY=1;exitDx=0;exitDy=0;entryX=0.5;entryY=0;entryDx=0;entryDy=0;fontSize=11;" parent="1" source="kGWkDboD7di_XbReE8EX-33" target="kGWkDboD7di_XbReE8EX-45" edge="1">
          <mxGeometry relative="1" as="geometry">
            <Array as="points">
              <mxPoint x="525" y="-49" />
              <mxPoint x="602" y="-49" />
            </Array>
          </mxGeometry>
        </mxCell>
        <mxCell id="kGWkDboD7di_XbReE8EX-33" value="&lt;span style=&quot;font-size: 11px;&quot;&gt;SID&lt;/span&gt;" style="rounded=1;whiteSpace=wrap;html=1;fontSize=11;fillColor=#dae8fc;strokeColor=#6c8ebf;" parent="1" vertex="1">
          <mxGeometry x="503" y="-95" width="45" height="30" as="geometry" />
        </mxCell>
        <mxCell id="kGWkDboD7di_XbReE8EX-47" style="edgeStyle=orthogonalEdgeStyle;rounded=0;orthogonalLoop=1;jettySize=auto;html=1;exitX=0.5;exitY=1;exitDx=0;exitDy=0;fontSize=11;entryX=0.5;entryY=0;entryDx=0;entryDy=0;" parent="1" source="kGWkDboD7di_XbReE8EX-34" target="kGWkDboD7di_XbReE8EX-45" edge="1">
          <mxGeometry relative="1" as="geometry">
            <mxPoint x="617.25" y="38.5" as="targetPoint" />
            <Array as="points">
              <mxPoint x="627" y="-49" />
              <mxPoint x="602" y="-49" />
            </Array>
          </mxGeometry>
        </mxCell>
        <mxCell id="kGWkDboD7di_XbReE8EX-34" value="&lt;span style=&quot;font-size: 11px;&quot;&gt;AudioBlacklist&lt;/span&gt;" style="rounded=1;whiteSpace=wrap;html=1;fontSize=11;fillColor=#dae8fc;strokeColor=#6c8ebf;" parent="1" vertex="1">
          <mxGeometry x="589" y="-95" width="76.5" height="30" as="geometry" />
        </mxCell>
        <mxCell id="kGWkDboD7di_XbReE8EX-51" style="rounded=0;orthogonalLoop=1;jettySize=auto;html=1;exitX=0.5;exitY=1;exitDx=0;exitDy=0;fontSize=11;edgeStyle=orthogonalEdgeStyle;" parent="1" source="kGWkDboD7di_XbReE8EX-37" target="kGWkDboD7di_XbReE8EX-45" edge="1">
          <mxGeometry relative="1" as="geometry">
            <Array as="points">
              <mxPoint x="730" y="-49" />
              <mxPoint x="602" y="-49" />
            </Array>
          </mxGeometry>
        </mxCell>
        <mxCell id="kGWkDboD7di_XbReE8EX-52" value="Databus" style="edgeLabel;html=1;align=center;verticalAlign=middle;resizable=0;points=[];fontSize=11;" parent="kGWkDboD7di_XbReE8EX-51" vertex="1" connectable="0">
          <mxGeometry x="0.6802" relative="1" as="geometry">
            <mxPoint y="5" as="offset" />
          </mxGeometry>
        </mxCell>
        <mxCell id="kGWkDboD7di_XbReE8EX-37" value="&lt;span style=&quot;font-size: 11px;&quot;&gt;PID&lt;/span&gt;" style="rounded=1;whiteSpace=wrap;html=1;fontSize=11;fillColor=#dae8fc;strokeColor=#6c8ebf;" parent="1" vertex="1">
          <mxGeometry x="710" y="-95" width="39" height="30" as="geometry" />
        </mxCell>
        <mxCell id="kGWkDboD7di_XbReE8EX-77" style="edgeStyle=orthogonalEdgeStyle;curved=1;rounded=0;orthogonalLoop=1;jettySize=auto;html=1;exitX=0.25;exitY=1;exitDx=0;exitDy=0;entryX=0.5;entryY=0;entryDx=0;entryDy=0;fontSize=11;startArrow=none;startFill=0;" parent="1" source="kGWkDboD7di_XbReE8EX-42" target="vf4R6eB1hgoiosgvf34Q-9" edge="1">
          <mxGeometry relative="1" as="geometry" />
        </mxCell>
        <mxCell id="kGWkDboD7di_XbReE8EX-42" value="&lt;span style=&quot;font-size: 11px;&quot;&gt;SkynetAsrAudit&lt;/span&gt;" style="rounded=1;whiteSpace=wrap;html=1;fontSize=11;fillColor=#dae8fc;strokeColor=#6c8ebf;" parent="1" vertex="1">
          <mxGeometry x="749" y="37.06" width="86" height="30" as="geometry" />
        </mxCell>
        <mxCell id="kGWkDboD7di_XbReE8EX-78" style="edgeStyle=orthogonalEdgeStyle;curved=1;rounded=0;orthogonalLoop=1;jettySize=auto;html=1;exitX=0.5;exitY=1;exitDx=0;exitDy=0;fontSize=11;startArrow=none;startFill=0;" parent="1" source="kGWkDboD7di_XbReE8EX-45" target="vf4R6eB1hgoiosgvf34Q-9" edge="1">
          <mxGeometry relative="1" as="geometry">
            <mxPoint x="499.8000000000002" y="226" as="targetPoint" />
          </mxGeometry>
        </mxCell>
        <mxCell id="kGWkDboD7di_XbReE8EX-45" value="&lt;span style=&quot;font-size: 11px;&quot;&gt;SkynetTagCollector&lt;/span&gt;" style="rounded=1;whiteSpace=wrap;html=1;fontSize=11;fillColor=#dae8fc;strokeColor=#6c8ebf;" parent="1" vertex="1">
          <mxGeometry x="548" y="34" width="107.5" height="30" as="geometry" />
        </mxCell>
        <mxCell id="kGWkDboD7di_XbReE8EX-67" style="rounded=0;orthogonalLoop=1;jettySize=auto;html=1;exitX=0.5;exitY=1;exitDx=0;exitDy=0;entryX=0.5;entryY=0;entryDx=0;entryDy=0;fontSize=11;startArrow=none;startFill=0;" parent="1" source="kGWkDboD7di_XbReE8EX-55" target="kGWkDboD7di_XbReE8EX-62" edge="1">
          <mxGeometry relative="1" as="geometry" />
        </mxCell>
        <mxCell id="kGWkDboD7di_XbReE8EX-68" style="edgeStyle=none;rounded=0;orthogonalLoop=1;jettySize=auto;html=1;exitX=0.5;exitY=1;exitDx=0;exitDy=0;entryX=0.5;entryY=0;entryDx=0;entryDy=0;fontSize=11;startArrow=none;startFill=0;" parent="1" source="kGWkDboD7di_XbReE8EX-55" target="kGWkDboD7di_XbReE8EX-63" edge="1">
          <mxGeometry relative="1" as="geometry" />
        </mxCell>
        <mxCell id="kGWkDboD7di_XbReE8EX-133" style="rounded=0;orthogonalLoop=1;jettySize=auto;html=1;exitX=0.5;exitY=1;exitDx=0;exitDy=0;entryX=1;entryY=0.5;entryDx=0;entryDy=0;shadow=0;fontSize=11;startArrow=none;startFill=0;strokeWidth=1;" parent="1" source="kGWkDboD7di_XbReE8EX-55" target="kGWkDboD7di_XbReE8EX-42" edge="1">
          <mxGeometry relative="1" as="geometry" />
        </mxCell>
        <mxCell id="kGWkDboD7di_XbReE8EX-55" value="&lt;span style=&quot;font-size: 11px;&quot;&gt;AsrRedis&lt;/span&gt;" style="rounded=1;whiteSpace=wrap;html=1;fontSize=11;fillColor=#f8cecc;strokeColor=#b85450;" parent="1" vertex="1">
          <mxGeometry x="851.25" y="-30.939999999999998" width="86" height="30" as="geometry" />
        </mxCell>
        <mxCell id="vf4R6eB1hgoiosgvf34Q-23" style="edgeStyle=orthogonalEdgeStyle;curved=1;rounded=0;orthogonalLoop=1;jettySize=auto;html=1;exitX=1;exitY=0.5;exitDx=0;exitDy=0;entryX=0.5;entryY=1;entryDx=0;entryDy=0;" edge="1" parent="1" source="kGWkDboD7di_XbReE8EX-59" target="kGWkDboD7di_XbReE8EX-29">
          <mxGeometry relative="1" as="geometry" />
        </mxCell>
        <mxCell id="vf4R6eB1hgoiosgvf34Q-37" value="读模型结果" style="edgeLabel;html=1;align=center;verticalAlign=middle;resizable=0;points=[];" vertex="1" connectable="0" parent="vf4R6eB1hgoiosgvf34Q-23">
          <mxGeometry x="-0.276" y="44" relative="1" as="geometry">
            <mxPoint as="offset" />
          </mxGeometry>
        </mxCell>
        <mxCell id="kGWkDboD7di_XbReE8EX-59" value="&lt;span style=&quot;font-size: 11px;&quot;&gt;SkynetRedis&lt;/span&gt;" style="rounded=1;whiteSpace=wrap;html=1;fontSize=11;fillColor=#f8cecc;strokeColor=#b85450;flipH=0;flipV=0;" parent="1" vertex="1">
          <mxGeometry x="691.83" y="798.06" width="107.5" height="30" as="geometry" />
        </mxCell>
        <mxCell id="kGWkDboD7di_XbReE8EX-75" style="edgeStyle=orthogonalEdgeStyle;curved=1;rounded=0;orthogonalLoop=1;jettySize=auto;html=1;exitX=0.25;exitY=1;exitDx=0;exitDy=0;fontSize=11;startArrow=none;startFill=0;" parent="1" source="kGWkDboD7di_XbReE8EX-62" target="vf4R6eB1hgoiosgvf34Q-9" edge="1">
          <mxGeometry relative="1" as="geometry" />
        </mxCell>
        <mxCell id="kGWkDboD7di_XbReE8EX-62" value="TextModelV1" style="rounded=1;whiteSpace=wrap;html=1;fontSize=11;fillColor=#dae8fc;strokeColor=#6c8ebf;" parent="1" vertex="1">
          <mxGeometry x="877.25" y="37.06" width="76" height="30" as="geometry" />
        </mxCell>
        <mxCell id="kGWkDboD7di_XbReE8EX-74" style="edgeStyle=orthogonalEdgeStyle;curved=1;rounded=0;orthogonalLoop=1;jettySize=auto;html=1;exitX=0.25;exitY=1;exitDx=0;exitDy=0;fontSize=11;startArrow=none;startFill=0;" parent="1" source="kGWkDboD7di_XbReE8EX-63" target="vf4R6eB1hgoiosgvf34Q-9" edge="1">
          <mxGeometry relative="1" as="geometry" />
        </mxCell>
        <mxCell id="kGWkDboD7di_XbReE8EX-63" value="TextModelV2" style="rounded=1;whiteSpace=wrap;html=1;fontSize=11;fillColor=#dae8fc;strokeColor=#6c8ebf;" parent="1" vertex="1">
          <mxGeometry x="963.75" y="37.06" width="76" height="30" as="geometry" />
        </mxCell>
        <mxCell id="vf4R6eB1hgoiosgvf34Q-12" style="edgeStyle=orthogonalEdgeStyle;curved=1;rounded=0;orthogonalLoop=1;jettySize=auto;html=1;exitX=1;exitY=0.5;exitDx=0;exitDy=0;entryX=0;entryY=0.5;entryDx=0;entryDy=0;" edge="1" parent="1" source="kGWkDboD7di_XbReE8EX-79" target="kGWkDboD7di_XbReE8EX-98">
          <mxGeometry relative="1" as="geometry" />
        </mxCell>
        <mxCell id="vf4R6eB1hgoiosgvf34Q-13" style="edgeStyle=orthogonalEdgeStyle;curved=1;rounded=0;orthogonalLoop=1;jettySize=auto;html=1;exitX=1;exitY=0.5;exitDx=0;exitDy=0;entryX=0;entryY=0.5;entryDx=0;entryDy=0;" edge="1" parent="1" source="kGWkDboD7di_XbReE8EX-79" target="kGWkDboD7di_XbReE8EX-94">
          <mxGeometry relative="1" as="geometry" />
        </mxCell>
        <mxCell id="kGWkDboD7di_XbReE8EX-79" value="VideoFeature" style="rounded=1;whiteSpace=wrap;html=1;fontSize=11;fillColor=#dae8fc;strokeColor=#6c8ebf;" parent="1" vertex="1">
          <mxGeometry x="473.00000000000006" y="554" width="76" height="30" as="geometry" />
        </mxCell>
        <mxCell id="vf4R6eB1hgoiosgvf34Q-27" style="edgeStyle=orthogonalEdgeStyle;curved=1;rounded=0;orthogonalLoop=1;jettySize=auto;html=1;exitX=0.5;exitY=1;exitDx=0;exitDy=0;" edge="1" parent="1" source="kGWkDboD7di_XbReE8EX-85" target="kGWkDboD7di_XbReE8EX-110">
          <mxGeometry relative="1" as="geometry" />
        </mxCell>
        <mxCell id="vf4R6eB1hgoiosgvf34Q-28" style="edgeStyle=orthogonalEdgeStyle;curved=1;rounded=0;orthogonalLoop=1;jettySize=auto;html=1;exitX=0.5;exitY=1;exitDx=0;exitDy=0;" edge="1" parent="1" source="kGWkDboD7di_XbReE8EX-85" target="kGWkDboD7di_XbReE8EX-113">
          <mxGeometry relative="1" as="geometry" />
        </mxCell>
        <mxCell id="vf4R6eB1hgoiosgvf34Q-29" style="edgeStyle=orthogonalEdgeStyle;curved=1;rounded=0;orthogonalLoop=1;jettySize=auto;html=1;exitX=0.5;exitY=1;exitDx=0;exitDy=0;entryX=0.5;entryY=0;entryDx=0;entryDy=0;" edge="1" parent="1" source="kGWkDboD7di_XbReE8EX-85" target="kGWkDboD7di_XbReE8EX-106">
          <mxGeometry relative="1" as="geometry" />
        </mxCell>
        <mxCell id="vf4R6eB1hgoiosgvf34Q-30" style="edgeStyle=orthogonalEdgeStyle;curved=1;rounded=0;orthogonalLoop=1;jettySize=auto;html=1;exitX=0.5;exitY=1;exitDx=0;exitDy=0;" edge="1" parent="1" source="kGWkDboD7di_XbReE8EX-85" target="kGWkDboD7di_XbReE8EX-117">
          <mxGeometry relative="1" as="geometry" />
        </mxCell>
        <mxCell id="vf4R6eB1hgoiosgvf34Q-31" style="edgeStyle=orthogonalEdgeStyle;curved=1;rounded=0;orthogonalLoop=1;jettySize=auto;html=1;exitX=0.5;exitY=1;exitDx=0;exitDy=0;entryX=0.5;entryY=0;entryDx=0;entryDy=0;" edge="1" parent="1" source="kGWkDboD7di_XbReE8EX-85" target="kGWkDboD7di_XbReE8EX-116">
          <mxGeometry relative="1" as="geometry" />
        </mxCell>
        <mxCell id="vf4R6eB1hgoiosgvf34Q-32" value="grpc" style="edgeLabel;html=1;align=center;verticalAlign=middle;resizable=0;points=[];" vertex="1" connectable="0" parent="vf4R6eB1hgoiosgvf34Q-31">
          <mxGeometry x="-0.8774" y="1" relative="1" as="geometry">
            <mxPoint as="offset" />
          </mxGeometry>
        </mxCell>
        <mxCell id="vf4R6eB1hgoiosgvf34Q-33" style="edgeStyle=orthogonalEdgeStyle;curved=1;rounded=0;orthogonalLoop=1;jettySize=auto;html=1;exitX=1;exitY=0.5;exitDx=0;exitDy=0;entryX=0;entryY=0.5;entryDx=0;entryDy=0;startArrow=classicThin;startFill=1;" edge="1" parent="1" source="kGWkDboD7di_XbReE8EX-85" target="kGWkDboD7di_XbReE8EX-29">
          <mxGeometry relative="1" as="geometry" />
        </mxCell>
        <mxCell id="vf4R6eB1hgoiosgvf34Q-34" value="&lt;span style=&quot;background-color: rgb(255, 153, 51);&quot;&gt;Databus&lt;/span&gt;" style="edgeLabel;html=1;align=center;verticalAlign=middle;resizable=0;points=[];" vertex="1" connectable="0" parent="vf4R6eB1hgoiosgvf34Q-33">
          <mxGeometry x="0.01" y="1" relative="1" as="geometry">
            <mxPoint as="offset" />
          </mxGeometry>
        </mxCell>
        <mxCell id="kGWkDboD7di_XbReE8EX-85" value="Dispatcher" style="rounded=1;whiteSpace=wrap;html=1;fontSize=11;fillColor=#dae8fc;strokeColor=#6c8ebf;direction=east;" parent="1" vertex="1">
          <mxGeometry x="604" y="273" width="76" height="30" as="geometry" />
        </mxCell>
        <mxCell id="vf4R6eB1hgoiosgvf34Q-16" style="edgeStyle=orthogonalEdgeStyle;curved=1;rounded=0;orthogonalLoop=1;jettySize=auto;html=1;exitX=1;exitY=0.5;exitDx=0;exitDy=0;" edge="1" parent="1" source="kGWkDboD7di_XbReE8EX-94" target="kGWkDboD7di_XbReE8EX-29">
          <mxGeometry relative="1" as="geometry" />
        </mxCell>
        <mxCell id="vf4R6eB1hgoiosgvf34Q-17" value="HTTP" style="edgeLabel;html=1;align=center;verticalAlign=middle;resizable=0;points=[];" vertex="1" connectable="0" parent="vf4R6eB1hgoiosgvf34Q-16">
          <mxGeometry x="-0.3747" y="-16" relative="1" as="geometry">
            <mxPoint as="offset" />
          </mxGeometry>
        </mxCell>
        <mxCell id="kGWkDboD7di_XbReE8EX-94" value="CrashIndex" style="rounded=1;whiteSpace=wrap;html=1;fontSize=11;fillColor=#dae8fc;strokeColor=#6c8ebf;" parent="1" vertex="1">
          <mxGeometry x="620.0000000000001" y="599" width="76" height="30" as="geometry" />
        </mxCell>
        <mxCell id="vf4R6eB1hgoiosgvf34Q-14" style="edgeStyle=orthogonalEdgeStyle;curved=1;rounded=0;orthogonalLoop=1;jettySize=auto;html=1;exitX=1;exitY=0.5;exitDx=0;exitDy=0;entryX=0;entryY=0.5;entryDx=0;entryDy=0;" edge="1" parent="1" source="kGWkDboD7di_XbReE8EX-98" target="kGWkDboD7di_XbReE8EX-304">
          <mxGeometry relative="1" as="geometry" />
        </mxCell>
        <mxCell id="kGWkDboD7di_XbReE8EX-98" value="VideoBlacklist" style="rounded=1;whiteSpace=wrap;html=1;fontSize=11;fillColor=#dae8fc;strokeColor=#6c8ebf;strokeWidth=1;" parent="1" vertex="1">
          <mxGeometry x="620" y="514" width="76" height="30" as="geometry" />
        </mxCell>
        <mxCell id="kGWkDboD7di_XbReE8EX-106" value="Vulgar" style="rounded=1;whiteSpace=wrap;html=1;fontSize=11;fillColor=#dae8fc;strokeColor=#6c8ebf;direction=east;" parent="1" vertex="1">
          <mxGeometry x="610.5" y="378" width="63" height="30" as="geometry" />
        </mxCell>
        <mxCell id="kGWkDboD7di_XbReE8EX-110" value="Scene" style="rounded=1;whiteSpace=wrap;html=1;fontSize=11;fillColor=#dae8fc;strokeColor=#6c8ebf;direction=east;" parent="1" vertex="1">
          <mxGeometry x="473" y="378" width="61" height="30" as="geometry" />
        </mxCell>
        <mxCell id="kGWkDboD7di_XbReE8EX-113" value="Face" style="rounded=1;whiteSpace=wrap;html=1;fontSize=11;fillColor=#dae8fc;strokeColor=#6c8ebf;direction=east;" parent="1" vertex="1">
          <mxGeometry x="541.5" y="378" width="62" height="30" as="geometry" />
        </mxCell>
        <mxCell id="kGWkDboD7di_XbReE8EX-117" value="Blacklist" style="rounded=1;whiteSpace=wrap;html=1;fontSize=11;fillColor=#dae8fc;strokeColor=#6c8ebf;direction=east;" parent="1" vertex="1">
          <mxGeometry x="682.5" y="378" width="64" height="30" as="geometry" />
        </mxCell>
        <mxCell id="kGWkDboD7di_XbReE8EX-266" style="edgeStyle=orthogonalEdgeStyle;curved=1;rounded=0;orthogonalLoop=1;jettySize=auto;html=1;exitX=1;exitY=0.5;exitDx=0;exitDy=0;entryX=0;entryY=0.5;entryDx=0;entryDy=0;shadow=0;fontSize=11;startArrow=classic;startFill=1;strokeWidth=1;" parent="1" source="kGWkDboD7di_XbReE8EX-129" target="kGWkDboD7di_XbReE8EX-59" edge="1">
          <mxGeometry relative="1" as="geometry" />
        </mxCell>
        <mxCell id="kGWkDboD7di_XbReE8EX-129" value="SkynetValueVideo" style="rounded=1;whiteSpace=wrap;html=1;fontSize=11;fillColor=#dae8fc;strokeColor=#6c8ebf;flipH=0;flipV=0;" parent="1" vertex="1">
          <mxGeometry x="473.0000000000001" y="721" width="103" height="30" as="geometry" />
        </mxCell>
        <mxCell id="kGWkDboD7di_XbReE8EX-267" style="edgeStyle=orthogonalEdgeStyle;curved=1;rounded=0;orthogonalLoop=1;jettySize=auto;html=1;exitX=1;exitY=0.5;exitDx=0;exitDy=0;entryX=0;entryY=0.5;entryDx=0;entryDy=0;shadow=0;fontSize=11;startArrow=none;startFill=0;strokeWidth=1;" parent="1" source="kGWkDboD7di_XbReE8EX-134" target="kGWkDboD7di_XbReE8EX-59" edge="1">
          <mxGeometry relative="1" as="geometry" />
        </mxCell>
        <mxCell id="kGWkDboD7di_XbReE8EX-134" value="VideoEmbedding" style="rounded=1;whiteSpace=wrap;html=1;fontSize=11;fillColor=#dae8fc;strokeColor=#6c8ebf;flipH=0;flipV=0;" parent="1" vertex="1">
          <mxGeometry x="476.0000000000001" y="764" width="97" height="30" as="geometry" />
        </mxCell>
        <mxCell id="kGWkDboD7di_XbReE8EX-268" style="edgeStyle=orthogonalEdgeStyle;curved=1;rounded=0;orthogonalLoop=1;jettySize=auto;html=1;exitX=1;exitY=0.25;exitDx=0;exitDy=0;shadow=0;fontSize=11;startArrow=none;startFill=0;strokeWidth=1;entryX=0;entryY=0.5;entryDx=0;entryDy=0;" parent="1" source="kGWkDboD7di_XbReE8EX-136" target="kGWkDboD7di_XbReE8EX-59" edge="1">
          <mxGeometry relative="1" as="geometry">
            <mxPoint x="339.83000000000004" y="952" as="targetPoint" />
          </mxGeometry>
        </mxCell>
        <mxCell id="kGWkDboD7di_XbReE8EX-136" value="TextEmbedding" style="rounded=1;whiteSpace=wrap;html=1;fontSize=11;fillColor=#dae8fc;strokeColor=#6c8ebf;flipH=0;flipV=0;" parent="1" vertex="1">
          <mxGeometry x="476.0000000000001" y="807" width="97" height="30" as="geometry" />
        </mxCell>
        <mxCell id="kGWkDboD7di_XbReE8EX-269" style="edgeStyle=orthogonalEdgeStyle;curved=1;rounded=0;orthogonalLoop=1;jettySize=auto;html=1;exitX=1;exitY=0.5;exitDx=0;exitDy=0;entryX=0;entryY=0.5;entryDx=0;entryDy=0;shadow=0;fontSize=11;startArrow=classic;startFill=1;strokeWidth=1;" parent="1" source="kGWkDboD7di_XbReE8EX-227" target="kGWkDboD7di_XbReE8EX-59" edge="1">
          <mxGeometry relative="1" as="geometry" />
        </mxCell>
        <mxCell id="kGWkDboD7di_XbReE8EX-227" value="SkynetRiskyVideo" style="rounded=1;whiteSpace=wrap;html=1;fontSize=11;fillColor=#dae8fc;strokeColor=#6c8ebf;flipH=0;flipV=0;" parent="1" vertex="1">
          <mxGeometry x="476.0000000000001" y="849" width="97" height="30" as="geometry" />
        </mxCell>
        <mxCell id="kGWkDboD7di_XbReE8EX-238" value="RiskyGame" style="rounded=1;whiteSpace=wrap;html=1;fontSize=11;fillColor=#dae8fc;strokeColor=#6c8ebf;" parent="1" vertex="1">
          <mxGeometry x="268.00000000000006" y="-51" width="72" height="30" as="geometry" />
        </mxCell>
        <mxCell id="kGWkDboD7di_XbReE8EX-29" value="&lt;span style=&quot;font-size: 11px;&quot;&gt;Skynet&lt;/span&gt;" style="rounded=1;whiteSpace=wrap;html=1;fontSize=11;fillColor=#dae8fc;strokeColor=#6c8ebf;" parent="1" vertex="1">
          <mxGeometry x="1086" y="323" width="76" height="219" as="geometry" />
        </mxCell>
        <mxCell id="kGWkDboD7di_XbReE8EX-116" value="Flag" style="rounded=1;whiteSpace=wrap;html=1;fontSize=11;fillColor=#dae8fc;strokeColor=#6c8ebf;direction=east;" parent="1" vertex="1">
          <mxGeometry x="756.5" y="378" width="65" height="30" as="geometry" />
        </mxCell>
        <mxCell id="kGWkDboD7di_XbReE8EX-295" value="&lt;span style=&quot;font-size: 11px;&quot;&gt;SkynetAlertHTTP&lt;/span&gt;" style="rounded=1;whiteSpace=wrap;html=1;fontSize=11;fillColor=#dae8fc;strokeColor=#6c8ebf;" parent="1" vertex="1">
          <mxGeometry x="261.75" y="11" width="96.5" height="30" as="geometry" />
        </mxCell>
        <mxCell id="vf4R6eB1hgoiosgvf34Q-15" style="edgeStyle=orthogonalEdgeStyle;curved=1;rounded=0;orthogonalLoop=1;jettySize=auto;html=1;exitX=1;exitY=0.5;exitDx=0;exitDy=0;entryX=0.5;entryY=1;entryDx=0;entryDy=0;" edge="1" parent="1" source="kGWkDboD7di_XbReE8EX-304" target="kGWkDboD7di_XbReE8EX-29">
          <mxGeometry relative="1" as="geometry" />
        </mxCell>
        <mxCell id="kGWkDboD7di_XbReE8EX-304" value="CrashRedis" style="rounded=1;whiteSpace=wrap;html=1;fontSize=11;fillColor=#fad9d5;strokeColor=#ae4132;strokeWidth=1;" parent="1" vertex="1">
          <mxGeometry x="793.5000000000001" y="514" width="76" height="30" as="geometry" />
        </mxCell>
        <mxCell id="7Qb2B7hWJv66uCLkFHdZ-2" value="AI" style="text;html=1;align=center;verticalAlign=middle;resizable=0;points=[];autosize=1;strokeColor=none;fillColor=none;fontSize=20;fontStyle=1" parent="1" vertex="1">
          <mxGeometry x="965" y="-151.5" width="30" height="28" as="geometry" />
        </mxCell>
        <mxCell id="vf4R6eB1hgoiosgvf34Q-11" style="edgeStyle=orthogonalEdgeStyle;curved=1;rounded=0;orthogonalLoop=1;jettySize=auto;html=1;exitX=1;exitY=0.5;exitDx=0;exitDy=0;entryX=0;entryY=0.5;entryDx=0;entryDy=0;" edge="1" parent="1" source="7Qb2B7hWJv66uCLkFHdZ-6" target="kGWkDboD7di_XbReE8EX-59">
          <mxGeometry relative="1" as="geometry" />
        </mxCell>
        <mxCell id="7Qb2B7hWJv66uCLkFHdZ-6" value="SkynetVideoFrame" style="rounded=1;whiteSpace=wrap;html=1;fontSize=11;fillColor=#dae8fc;strokeColor=#6c8ebf;flipH=0;flipV=0;" parent="1" vertex="1">
          <mxGeometry x="476.0000000000001" y="889" width="97" height="30" as="geometry" />
        </mxCell>
        <mxCell id="PJ2n8iGxlKjYNNfUEFyu-1" value="&lt;meta charset=&quot;utf-8&quot;&gt;&lt;div style=&quot;color: rgb(0, 0, 0); font-size: medium; font-style: normal; font-variant-ligatures: normal; font-variant-caps: normal; font-weight: 400; letter-spacing: normal; orphans: 2; text-align: start; text-indent: 0px; text-transform: none; widows: 2; word-spacing: 0px; -webkit-text-stroke-width: 0px; text-decoration-thickness: initial; text-decoration-style: initial; text-decoration-color: initial;&quot; data-hash=&quot;d41d8cd98f00b204e9800998ecf8427e&quot; data-version=&quot;3.0.0&quot;&gt;&lt;/div&gt;&lt;div style=&quot;color: rgb(0, 0, 0); font-size: medium; font-style: normal; font-variant-ligatures: normal; font-variant-caps: normal; font-weight: 400; letter-spacing: normal; orphans: 2; text-align: start; text-indent: 0px; text-transform: none; widows: 2; word-spacing: 0px; -webkit-text-stroke-width: 0px; text-decoration-thickness: initial; text-decoration-style: initial; text-decoration-color: initial;&quot;&gt;&lt;div class=&quot;document&quot;&gt;&lt;div class=&quot;section&quot;&gt;&lt;p style=&quot;text-align: left; line-height: 1.3px; margin-top: 4px; margin-bottom: 4px;&quot; class=&quot;paragraph text-align-type-left pap-line-1.3 pap-line-rule-auto pap-spacing-before-3pt pap-spacing-after-3pt&quot;&gt;&lt;span style=&quot;display: inline-block; overflow: hidden; transform: rotate(0deg); width: 604.733px; height: 299.563px;&quot; class=&quot;image-wrapper&quot;&gt;&lt;img style=&quot;margin-left: 0px; margin-top: 0px; width: 604.733px; height: 299.563px;&quot; height=&quot;299.563px&quot; width=&quot;604.733&quot; src=&quot;https://wdcdn.qpic.cn/MTY4ODg1MDgxNTMwMzM3OA_322669__O6tu0zqx6BO3Ktv_1673539197?w=1510&amp;amp;h=748&quot; id=&quot;4bb36977&quot;&gt;&lt;/span&gt;&lt;/p&gt;&lt;/div&gt;&lt;/div&gt;&lt;/div&gt;" style="text;whiteSpace=wrap;html=1;fontSize=20;" parent="1" vertex="1">
          <mxGeometry x="176.00235294117658" y="1686.9970588235292" width="540" height="322" as="geometry" />
        </mxCell>
        <mxCell id="PJ2n8iGxlKjYNNfUEFyu-3" value="图像模型" style="whiteSpace=wrap;html=1;fontSize=12;strokeWidth=0.5;" parent="1" vertex="1">
          <mxGeometry x="205" y="1908" width="59" height="25" as="geometry" />
        </mxCell>
        <mxCell id="vf4R6eB1hgoiosgvf34Q-7" value="&lt;span style=&quot;font-size: 11px;&quot;&gt;AegisDispatchService&lt;/span&gt;" style="rounded=1;whiteSpace=wrap;html=1;fontSize=11;fillColor=#dae8fc;strokeColor=#6c8ebf;" vertex="1" parent="1">
          <mxGeometry x="249.0000000000001" y="223.99999999999994" width="122" height="30" as="geometry" />
        </mxCell>
        <mxCell id="vf4R6eB1hgoiosgvf34Q-35" style="edgeStyle=orthogonalEdgeStyle;curved=1;rounded=0;orthogonalLoop=1;jettySize=auto;html=1;exitX=1;exitY=0.5;exitDx=0;exitDy=0;entryX=0.5;entryY=0;entryDx=0;entryDy=0;" edge="1" parent="1" source="vf4R6eB1hgoiosgvf34Q-9" target="kGWkDboD7di_XbReE8EX-29">
          <mxGeometry relative="1" as="geometry" />
        </mxCell>
        <mxCell id="vf4R6eB1hgoiosgvf34Q-36" value="读模型结果" style="edgeLabel;html=1;align=center;verticalAlign=middle;resizable=0;points=[];" vertex="1" connectable="0" parent="vf4R6eB1hgoiosgvf34Q-35">
          <mxGeometry x="-0.2799" y="-20" relative="1" as="geometry">
            <mxPoint as="offset" />
          </mxGeometry>
        </mxCell>
        <mxCell id="vf4R6eB1hgoiosgvf34Q-9" value="&lt;span style=&quot;font-size: 11px;&quot;&gt;SkynetRedis&lt;/span&gt;" style="rounded=1;whiteSpace=wrap;html=1;fontSize=11;fillColor=#f8cecc;strokeColor=#b85450;" vertex="1" parent="1">
          <mxGeometry x="753.83" y="155" width="107.5" height="30" as="geometry" />
        </mxCell>
        <mxCell id="vf4R6eB1hgoiosgvf34Q-40" value="&lt;span style=&quot;font-size: 11px;&quot;&gt;AegisDatabus&lt;/span&gt;" style="rounded=1;whiteSpace=wrap;html=1;fontSize=11;fillColor=#f0a30a;strokeColor=#BD7000;fontColor=#000000;" vertex="1" parent="1">
          <mxGeometry x="249.0000000000001" y="296.99999999999994" width="122" height="30" as="geometry" />
        </mxCell>
      </root>
    </mxGraphModel>
  </diagram>
</mxfile>
